<mxfile host="app.diagrams.net" agent="Mozilla/5.0 (Windows NT 10.0; Win64; x64) AppleWebKit/537.36 (KHTML, like Gecko) Chrome/135.0.0.0 Safari/537.36 Edg/135.0.0.0" version="26.2.14">
  <diagram name="第 1 页" id="LNlYKfLvCOk8HpMUdlGi">
    <mxGraphModel dx="2012" dy="3217" grid="1" gridSize="10" guides="1" tooltips="1" connect="1" arrows="1" fold="1" page="1" pageScale="1" pageWidth="827" pageHeight="1169" math="0" shadow="0">
      <root>
        <mxCell id="0" />
        <mxCell id="1" parent="0" />
        <mxCell id="BNcEmSx0Iehc34TsWl-9-15" style="edgeStyle=orthogonalEdgeStyle;rounded=0;orthogonalLoop=1;jettySize=auto;html=1;exitX=0.5;exitY=1;exitDx=0;exitDy=0;" edge="1" parent="1" source="BNcEmSx0Iehc34TsWl-9-9" target="BNcEmSx0Iehc34TsWl-9-11">
          <mxGeometry relative="1" as="geometry" />
        </mxCell>
        <mxCell id="BNcEmSx0Iehc34TsWl-9-16" style="edgeStyle=orthogonalEdgeStyle;rounded=0;orthogonalLoop=1;jettySize=auto;html=1;exitX=0.5;exitY=1;exitDx=0;exitDy=0;entryX=0.5;entryY=0;entryDx=0;entryDy=0;" edge="1" parent="1" source="BNcEmSx0Iehc34TsWl-9-9" target="BNcEmSx0Iehc34TsWl-9-10">
          <mxGeometry relative="1" as="geometry" />
        </mxCell>
        <mxCell id="BNcEmSx0Iehc34TsWl-9-17" style="edgeStyle=orthogonalEdgeStyle;rounded=0;orthogonalLoop=1;jettySize=auto;html=1;exitX=0.5;exitY=1;exitDx=0;exitDy=0;" edge="1" parent="1" source="BNcEmSx0Iehc34TsWl-9-9" target="BNcEmSx0Iehc34TsWl-9-12">
          <mxGeometry relative="1" as="geometry" />
        </mxCell>
        <mxCell id="BNcEmSx0Iehc34TsWl-9-9" value="&lt;span style=&quot;font-size: 18px;&quot;&gt;过渡目标架构&lt;/span&gt;&lt;div&gt;&lt;span style=&quot;font-size: 18px;&quot;&gt;新平台（主）+老平台（备）&lt;/span&gt;&lt;/div&gt;" style="whiteSpace=wrap;html=1;aspect=fixed;" vertex="1" parent="1">
          <mxGeometry x="304" y="-130" width="220" height="220" as="geometry" />
        </mxCell>
        <mxCell id="BNcEmSx0Iehc34TsWl-9-14" value="" style="edgeStyle=orthogonalEdgeStyle;rounded=0;orthogonalLoop=1;jettySize=auto;html=1;" edge="1" parent="1" source="BNcEmSx0Iehc34TsWl-9-10" target="BNcEmSx0Iehc34TsWl-9-12">
          <mxGeometry relative="1" as="geometry" />
        </mxCell>
        <mxCell id="BNcEmSx0Iehc34TsWl-9-10" value="&lt;span style=&quot;font-size: 18px;&quot;&gt;灰度切换阶段&lt;/span&gt;&lt;br&gt;&lt;div&gt;&lt;span style=&quot;font-size: 18px;&quot;&gt;（逐步替代老平台）&lt;/span&gt;&lt;/div&gt;" style="whiteSpace=wrap;html=1;aspect=fixed;" vertex="1" parent="1">
          <mxGeometry x="304" y="160" width="220" height="220" as="geometry" />
        </mxCell>
        <mxCell id="BNcEmSx0Iehc34TsWl-9-13" value="" style="edgeStyle=orthogonalEdgeStyle;rounded=0;orthogonalLoop=1;jettySize=auto;html=1;" edge="1" parent="1" source="BNcEmSx0Iehc34TsWl-9-11" target="BNcEmSx0Iehc34TsWl-9-10">
          <mxGeometry relative="1" as="geometry" />
        </mxCell>
        <mxCell id="BNcEmSx0Iehc34TsWl-9-11" value="&lt;span style=&quot;font-size: 18px;&quot;&gt;数据双写阶段&lt;/span&gt;&lt;br&gt;&lt;div&gt;&lt;span style=&quot;font-size: 18px;&quot;&gt;（保证数据一致性）&lt;/span&gt;&lt;/div&gt;" style="whiteSpace=wrap;html=1;aspect=fixed;" vertex="1" parent="1">
          <mxGeometry x="-20" y="160" width="220" height="220" as="geometry" />
        </mxCell>
        <mxCell id="BNcEmSx0Iehc34TsWl-9-12" value="&lt;span style=&quot;font-size: 18px;&quot;&gt;老平台下线收尾阶段&lt;/span&gt;&lt;br&gt;&lt;div&gt;&lt;span style=&quot;font-size: 18px;&quot;&gt;（全面切换+应急回退）&lt;/span&gt;&lt;/div&gt;" style="whiteSpace=wrap;html=1;aspect=fixed;" vertex="1" parent="1">
          <mxGeometry x="620" y="160" width="220" height="220" as="geometry" />
        </mxCell>
      </root>
    </mxGraphModel>
  </diagram>
</mxfile>
